<?xml version="1.0" standalone="no"?>
<!DOCTYPE svg PUBLIC "-//W3C//DTD SVG 20010904//EN"
 "http://www.w3.org/TR/2001/REC-SVG-20010904/DTD/svg10.dtd">
<svg version="1.0" xmlns="http://www.w3.org/2000/svg"
 width="1280.000000pt" height="960.000000pt" viewBox="0 0 1280.000000 960.000000"
 preserveAspectRatio="xMidYMid meet">
<metadata>
Created by potrace 1.15, written by Peter Selinger 2001-2017
</metadata>
<g transform="translate(0.000000,960.000000) scale(0.100000,-0.100000)"
fill="#cd6a9a" stroke="none">
<path d="M5296 8492 c-4 -4 -21 -7 -37 -8 -59 -3 -61 -11 -105 -349 -13 -104
-27 -237 -31 -295 -5 -87 -11 -113 -35 -158 -46 -88 -33 -148 38 -178 37 -16
43 -30 18 -49 -15 -11 -15 -19 0 -109 15 -87 16 -155 10 -581 l-7 -483 -76 -6
c-139 -12 -434 -48 -579 -70 l-144 -22 -8 21 c-12 30 -48 262 -66 422 -9 76
-19 251 -23 388 -5 184 -11 257 -21 275 -10 19 -14 74 -15 220 -1 209 -11 262
-69 393 -34 77 -58 97 -102 85 -19 -5 -38 -7 -43 -4 -4 3 -16 -1 -27 -8 -10
-8 -24 -12 -31 -9 -7 3 -13 0 -13 -7 0 -6 -4 -8 -10 -5 -5 3 -16 3 -22 -2 -7
-4 -22 -9 -32 -10 -11 -2 -27 -10 -35 -18 -17 -14 -19 -15 -50 -15 -34 0 -44
-59 -44 -260 0 -132 5 -206 16 -258 19 -85 56 -171 93 -214 16 -20 24 -39 20
-52 -2 -12 -1 -55 4 -96 11 -85 36 -507 46 -771 l7 -175 -89 -31 c-49 -17
-149 -41 -222 -53 -216 -34 -344 -85 -475 -188 -99 -78 -164 -185 -192 -319
-17 -78 -20 -220 -5 -257 8 -22 7 -26 -10 -26 -12 0 -22 -9 -26 -24 -4 -17
-11 -22 -25 -19 -30 8 -49 -14 -42 -49 4 -21 3 -29 -5 -24 -6 3 -13 2 -16 -3
-3 -5 -16 -7 -28 -4 -12 4 -25 0 -32 -8 -6 -8 -22 -16 -35 -16 -13 -1 -28 -8
-32 -15 -25 -39 1 -168 81 -403 28 -82 69 -222 91 -310 37 -150 40 -173 49
-380 10 -229 16 -834 10 -872 -4 -21 -5 -21 -36 5 -18 15 -31 33 -28 41 7 21
-15 40 -60 52 -22 6 -59 23 -80 37 -41 28 -93 34 -167 19 -53 -11 -115 -77
-159 -172 -90 -191 -131 -545 -72 -624 16 -22 22 -44 22 -83 0 -29 6 -64 13
-78 15 -31 71 -60 114 -60 25 0 36 -7 50 -30 18 -31 32 -42 158 -121 39 -24
82 -56 97 -71 16 -14 45 -32 65 -39 21 -7 83 -37 138 -67 199 -108 338 -173
410 -191 40 -10 78 -22 84 -25 9 -6 40 2 131 32 8 3 20 4 25 3 6 -2 55 -7 110
-11 74 -5 117 -14 164 -35 42 -18 89 -29 140 -32 57 -5 90 -13 132 -35 63 -33
118 -43 344 -59 154 -12 803 -30 1030 -30 61 0 301 0 535 0 398 0 430 1 504
20 62 16 110 21 217 21 129 0 144 2 221 30 98 36 147 38 174 9 11 -12 26 -18
37 -15 10 2 34 -6 54 -20 42 -28 52 -29 123 -8 151 45 239 54 540 60 208 4
310 10 344 20 27 8 90 14 140 14 118 0 159 12 192 55 l26 35 93 0 c108 0 195
23 265 70 25 16 58 30 73 30 37 0 91 24 141 61 23 16 100 64 171 105 245 142
325 217 499 474 24 36 53 73 65 84 35 32 61 120 73 254 7 70 13 158 13 195 0
67 -1 69 -40 105 -37 34 -40 41 -40 91 0 50 -3 57 -32 76 -22 15 -54 24 -103
28 -44 4 -79 12 -89 22 -10 8 -32 15 -50 15 -22 0 -45 11 -75 36 l-43 36 -6
521 c-6 513 -3 630 27 995 10 118 19 179 28 190 44 52 49 160 11 241 l-21 45
20 39 c27 51 14 97 -44 156 -75 75 -311 210 -493 281 -44 17 -84 35 -88 40
-26 24 -56 507 -57 895 l-1 330 50 199 c28 109 63 225 77 257 30 67 28 103
-11 171 -20 35 -25 57 -25 118 0 41 -3 85 -6 97 -6 23 -44 38 -55 21 -4 -7
-11 -2 -19 11 -11 21 -13 21 -35 7 -18 -12 -25 -12 -28 -3 -4 9 -8 9 -15 -1
-8 -11 -10 -11 -15 1 -6 16 -50 15 -71 -2 -10 -9 -15 -7 -20 5 -11 29 -24 3
-34 -66 -5 -36 -10 -54 -11 -40 -3 54 -20 -8 -31 -115 -20 -201 -41 -329 -72
-449 -20 -79 -29 -133 -26 -161 3 -24 0 -52 -7 -66 l-13 -24 -4 30 c-4 38 -41
43 -46 7 -3 -18 -8 -22 -25 -16 -12 3 -24 6 -27 6 -46 1 -41 -37 8 -59 42 -20
48 -42 37 -128 -5 -45 -8 -50 -32 -52 -46 -2 -55 -27 -49 -128 3 -49 9 -203
12 -341 6 -218 5 -252 -9 -257 -8 -3 -104 12 -213 33 -215 42 -458 80 -514 80
-19 0 -41 4 -48 9 -11 6 -13 134 -11 687 l3 678 33 55 c35 58 43 105 18 115
-8 3 -22 -2 -30 -11 -15 -14 -16 -11 -10 43 13 120 30 390 27 423 -3 25 -6 31
-13 20 -6 -9 -9 4 -9 40 0 45 -2 52 -16 47 -10 -4 -25 1 -35 10 -11 10 -19 14
-19 9 0 -4 -7 -2 -15 5 -12 10 -16 9 -21 -4 -6 -15 -8 -15 -20 1 -11 15 -13
15 -14 3 0 -10 -3 -11 -8 -4 -10 15 -40 25 -47 14 -3 -5 -20 -6 -38 -3 -21 3
-37 0 -44 -9 -31 -37 -84 -306 -99 -503 -6 -75 -11 -96 -33 -124 -23 -31 -26
-45 -28 -125 -1 -50 -9 -118 -17 -151 -8 -33 -23 -134 -33 -225 -20 -184 -25
-611 -9 -852 l8 -138 -310 0 -309 0 -7 48 c-8 64 -26 416 -26 528 0 69 -3 93
-14 97 -27 11 -36 -17 -36 -116 0 -96 -1 -98 -22 -95 -12 2 -32 18 -44 36 -14
20 -24 28 -27 20 -4 -9 -6 -9 -6 -1 -1 6 -6 24 -11 38 -8 20 -14 24 -23 17 -6
-5 -21 -6 -32 -2 -11 4 -26 5 -32 3 -7 -3 -13 -1 -13 3 0 5 19 17 43 27 82 34
183 110 207 154 25 48 19 68 -17 58 l-25 -6 7 73 c9 100 34 261 50 328 20 84
29 174 16 166 -7 -5 -11 5 -11 29 0 25 -5 37 -17 42 -10 3 -27 17 -38 30 -11
13 -31 25 -45 27 -14 1 -30 5 -35 8 -17 10 -139 6 -160 -5 -11 -6 -26 -10 -33
-9 -6 2 -17 -9 -22 -23 -6 -14 -14 -23 -20 -20 -14 9 -17 -19 -30 -272 -6
-127 -15 -258 -20 -291 -8 -46 -7 -69 5 -102 14 -39 14 -44 -5 -67 -29 -37
-25 -60 15 -100 42 -42 40 -70 -5 -70 -17 0 -33 -2 -36 -6 -18 -18 -22 -109
-13 -267 5 -96 11 -194 12 -218 2 -31 -2 -43 -14 -47 -15 -5 -451 2 -454 8 0
1 -20 180 -44 397 -23 217 -49 456 -57 530 -30 261 -30 287 0 372 14 42 26 83
26 92 0 12 5 14 25 6 56 -21 75 18 23 50 l-32 19 -1 203 c-2 157 -6 217 -19
262 -9 33 -19 86 -23 118 -4 38 -10 58 -19 58 -7 0 -14 12 -16 28 -2 21 -8 27
-28 28 -14 1 -37 6 -52 12 -15 6 -30 7 -32 3 -6 -8 -60 -6 -75 4 -5 2 -11 1
-15 -3z m1056 -1501 c21 11 28 11 28 0 0 -5 -13 -14 -29 -21 -23 -9 -38 -9
-65 0 -50 16 -45 29 6 20 24 -5 50 -4 60 1z m-162 -21 c0 -11 -4 -20 -10 -20
-5 0 -10 9 -10 20 0 11 5 20 10 20 6 0 10 -9 10 -20z m2714 -650 c4 -41 11
-124 17 -185 5 -60 12 -129 15 -152 5 -44 -10 -61 -23 -25 -3 9 -20 32 -37 50
-27 29 -31 39 -30 90 1 31 6 102 13 157 7 55 15 226 19 380 l7 280 6 -260 c4
-143 9 -294 13 -335z m-2647 528 c-3 -8 -6 -5 -6 6 -1 11 2 17 5 13 3 -3 4
-12 1 -19z m-1001 -570 c7 -58 6 -58 -20 -58 l-26 0 1 193 1 192 18 -135 c10
-74 22 -161 26 -192z m-106 -57 c0 -5 -26 -12 -57 -15 -207 -21 -363 -40 -533
-65 -179 -27 -212 -29 -199 -16 10 10 459 71 689 94 47 5 88 9 93 10 4 0 7 -3
7 -8z m3787 -341 c11 0 30 -126 20 -136 -8 -9 -96 60 -92 72 2 6 -2 17 -8 23
-16 16 21 54 48 47 11 -3 25 -6 32 -6z m160 -61 c184 -73 438 -225 474 -282
23 -38 24 -57 4 -57 -8 0 -15 -5 -15 -11 0 -6 -17 3 -37 19 -87 69 -258 146
-407 183 -69 17 -85 25 -89 43 -10 41 -19 136 -13 136 3 0 40 -14 83 -31z
m-17 -505 c7 -7 -22 -24 -42 -24 -12 0 -18 8 -18 21 0 18 4 20 27 14 16 -4 30
-9 33 -11z m-5650 -54 c6 -34 5 -40 -9 -40 -10 0 -25 6 -35 13 -16 12 -17 17
-6 38 13 25 31 41 38 34 3 -2 8 -22 12 -45z m6109 -297 c0 -38 -4 -77 -9 -88
-5 -11 -9 -14 -9 -7 -1 7 -12 17 -26 24 -22 10 -55 62 -55 87 0 10 71 48 93
50 4 1 7 -29 6 -66z m-6541 -1408 l-13 -60 -5 94 c-3 52 -3 120 -1 150 l4 56
14 -90 c13 -76 13 -99 1 -150z m5753 6 c5 8 9 9 9 3 0 -5 -6 -19 -14 -29 -13
-17 -13 -17 -13 11 0 16 2 23 5 15 4 -11 6 -11 13 0z m879 -282 c0 -4 -8 -9
-17 -13 -10 -3 -24 -9 -30 -12 -10 -4 -13 7 -13 42 l0 48 30 -29 c17 -16 30
-32 30 -36z m255 -41 c23 -10 25 -16 25 -75 0 -56 -2 -63 -19 -63 -11 0 -22 8
-25 18 -4 10 -22 44 -40 75 l-35 57 34 0 c19 0 46 -5 60 -12z m-431 -309 c-10
-12 -45 -44 -77 -70 -46 -39 -62 -47 -76 -40 -10 6 -39 11 -64 13 -26 2 -47 5
-47 7 0 2 11 24 25 48 24 40 29 43 68 44 69 1 150 9 155 14 3 3 12 5 20 5 12
0 11 -4 -4 -21z m-6429 -186 c4 -10 9 -62 12 -116 l6 -98 -27 12 c-25 12 -26
16 -26 84 0 112 16 165 35 118z m6940 -25 c-10 -50 -26 -100 -31 -95 -5 5 27
127 33 127 3 0 2 -15 -2 -32z m-7025 -158 c0 -74 -2 -80 -21 -80 -11 0 -17 -4
-14 -10 3 -5 -3 -10 -15 -10 -19 0 -21 4 -15 33 9 46 48 147 57 147 5 0 8 -36
8 -80z m-475 -237 c12 -40 12 -43 -7 -43 -35 0 -58 19 -58 50 0 28 13 40 39
37 8 -1 19 -21 26 -44z m2655 -203 c206 -6 452 -10 546 -10 144 0 173 -2 178
-15 3 -8 15 -15 26 -15 11 0 20 -6 20 -14 0 -25 29 -26 188 -7 317 38 387 42
745 35 191 -4 347 -11 347 -16 0 -4 10 -8 23 -9 50 -2 -59 -18 -272 -40 -220
-22 -235 -22 -695 -10 -504 12 -927 34 -1386 71 -145 12 -380 39 -395 45 -5 3
60 2 145 -1 85 -3 324 -9 530 -14z m3790 -299 c0 -14 -59 -31 -104 -30 l-41 1
35 8 c19 4 46 12 60 18 31 14 50 15 50 3z m-316 -73 c-25 -45 -34 -48 -144
-48 -66 0 -126 -6 -156 -15 -27 -8 -78 -14 -114 -14 -59 1 -52 3 80 24 116 19
323 58 338 64 2 0 0 -5 -4 -11z m-1588 -113 c-33 -14 -77 -25 -98 -25 -35 0
-38 2 -24 15 8 9 41 19 73 24 102 15 112 12 49 -14z m-2436 -25 c361 -26 381
-28 215 -25 -205 5 -517 30 -540 43 -17 11 -15 12 15 7 19 -3 159 -14 310 -25z
m2040 -9 c0 -4 -19 -14 -42 -22 -34 -11 -114 -12 -393 -9 -375 5 -428 4 -604
-5 -126 -8 -204 0 -198 18 2 7 32 15 68 18 95 9 1169 9 1169 0z"/>
</g>
</svg>
